<mxfile host="65bd71144e" modified="2020-11-10T05:04:34.973Z" agent="5.0 (X11; Linux x86_64) AppleWebKit/537.36 (KHTML, like Gecko) Code/1.47.3 Chrome/78.0.3904.130 Electron/7.3.2 Safari/537.36" etag="RgluWQYcwUB495OP6kL3" version="13.6.5">
    <diagram id="-EG-OFLHsRU53Jx3gekC" name="Page-1">
        <mxGraphModel dx="990" dy="613" grid="1" gridSize="10" guides="1" tooltips="1" connect="1" arrows="1" fold="1" page="1" pageScale="1" pageWidth="827" pageHeight="1169" math="0" shadow="0">
            <root>
                <mxCell id="0"/>
                <mxCell id="1" parent="0"/>
                <mxCell id="2" value="create asset&lt;br&gt;on marketplace" style="rounded=0;whiteSpace=wrap;html=1;" parent="1" vertex="1">
                    <mxGeometry x="150" y="60" width="120" height="60" as="geometry"/>
                </mxCell>
                <mxCell id="3" value="read asset from marketplace&lt;br&gt;" style="rounded=0;whiteSpace=wrap;html=1;" parent="1" vertex="1">
                    <mxGeometry x="359" y="120" width="120" height="60" as="geometry"/>
                </mxCell>
                <mxCell id="4" value="Read Asset agreement" style="rounded=0;whiteSpace=wrap;html=1;" parent="1" vertex="1">
                    <mxGeometry x="160" y="290" width="120" height="60" as="geometry"/>
                </mxCell>
                <mxCell id="5" value="org1" style="text;html=1;align=center;verticalAlign=middle;resizable=0;points=[];autosize=1;" parent="1" vertex="1">
                    <mxGeometry x="200" y="30" width="40" height="20" as="geometry"/>
                </mxCell>
                <mxCell id="6" value="org2" style="text;html=1;align=center;verticalAlign=middle;resizable=0;points=[];autosize=1;" parent="1" vertex="1">
                    <mxGeometry x="394" y="40" width="40" height="20" as="geometry"/>
                </mxCell>
                <mxCell id="7" value="verify asset agreement" style="rounded=0;whiteSpace=wrap;html=1;" parent="1" vertex="1">
                    <mxGeometry x="160" y="380" width="120" height="60" as="geometry"/>
                </mxCell>
                <mxCell id="8" value="AgreeToTransfer&lt;br&gt;" style="rounded=0;whiteSpace=wrap;html=1;" parent="1" vertex="1">
                    <mxGeometry x="359" y="210" width="120" height="60" as="geometry"/>
                </mxCell>
                <mxCell id="9" value="1. updates pvt store with agreed asset price&lt;br&gt;2. Create agreement by storing buyer's id in&amp;nbsp;&lt;br&gt;the marketplace" style="text;html=1;align=center;verticalAlign=middle;resizable=0;points=[];autosize=1;" parent="1" vertex="1">
                    <mxGeometry x="500" y="215" width="250" height="50" as="geometry"/>
                </mxCell>
                <mxCell id="10" value="compare hashes of key-value in respective private-data" style="text;html=1;align=center;verticalAlign=middle;resizable=0;points=[];autosize=1;" parent="1" vertex="1">
                    <mxGeometry x="310" y="400" width="310" height="20" as="geometry"/>
                </mxCell>
                <mxCell id="11" value="Read the buyerID" style="text;html=1;align=center;verticalAlign=middle;resizable=0;points=[];autosize=1;" vertex="1" parent="1">
                    <mxGeometry x="304" y="310" width="110" height="20" as="geometry"/>
                </mxCell>
                <mxCell id="13" value="Transfer assset" style="rounded=0;whiteSpace=wrap;html=1;" vertex="1" parent="1">
                    <mxGeometry x="160" y="480" width="120" height="60" as="geometry"/>
                </mxCell>
                <mxCell id="14" value="ser owner as buyerID" style="text;html=1;align=center;verticalAlign=middle;resizable=0;points=[];autosize=1;" vertex="1" parent="1">
                    <mxGeometry x="304" y="500" width="130" height="20" as="geometry"/>
                </mxCell>
            </root>
        </mxGraphModel>
    </diagram>
</mxfile>